<?xml version="1.0" standalone="no"?>
<!DOCTYPE svg PUBLIC "-//W3C//DTD SVG 20010904//EN"
 "http://www.w3.org/TR/2001/REC-SVG-20010904/DTD/svg10.dtd">
<svg version="1.0" xmlns="http://www.w3.org/2000/svg"
 width="700.000000pt" height="700.000000pt" viewBox="0 0 700.000000 700.000000"
 preserveAspectRatio="xMidYMid meet">
<metadata>
Created by potrace 1.14, written by Peter Selinger 2001-2017
</metadata>
<g transform="translate(0.000000,700.000000) scale(0.100000,-0.100000)"
fill="#000000" stroke="none">
<path d="M3155 6859 c-61 -11 -95 -27 -142 -65 -84 -69 -114 -153 -114 -324 0
-173 21 -243 94 -318 40 -40 124 -82 166 -82 34 0 45 -28 44 -108 -1 -84 -12
-101 -67 -103 -17 0 -38 -2 -46 -4 -8 -1 -35 -6 -60 -9 -136 -20 -404 -95
-576 -162 -103 -39 -322 -141 -334 -155 -3 -3 -12 -8 -21 -12 -54 -19 -309
-194 -428 -292 -48 -40 -156 -142 -215 -204 -34 -34 -72 -75 -86 -90 -21 -21
-125 -148 -152 -186 -4 -5 -18 -23 -31 -40 -92 -118 -232 -359 -320 -555 -40
-88 -116 -301 -132 -370 -2 -8 -13 -49 -23 -90 -11 -42 -23 -91 -26 -110 -3
-19 -8 -46 -11 -60 -3 -14 -14 -90 -24 -170 -15 -114 -18 -194 -16 -375 4
-241 4 -247 36 -440 31 -191 105 -456 164 -590 7 -16 29 -66 49 -110 226 -513
651 -997 1132 -1288 85 -52 285 -157 298 -157 3 0 25 -9 49 -20 108 -50 282
-108 442 -149 91 -23 112 -27 210 -42 39 -6 104 -18 145 -26 79 -16 541 -26
570 -12 8 4 47 10 85 14 88 8 121 13 220 30 331 59 739 223 1036 417 287 187
580 472 781 758 60 86 63 97 35 152 l-23 46 28 42 c41 60 159 303 154 316 -3
7 3 10 15 7 40 -11 89 7 109 40 36 58 135 396 154 522 3 22 8 51 11 65 5 30
12 77 22 156 16 126 8 601 -12 705 -2 9 -7 39 -10 66 -9 58 -48 231 -74 328
-76 279 -238 616 -408 852 -21 29 -56 77 -77 108 l-40 56 45 45 46 45 70 -36
c93 -49 164 -56 248 -24 165 62 248 255 173 405 -48 97 -482 530 -577 576 -96
45 -245 20 -324 -57 -112 -107 -127 -266 -37 -395 22 -31 14 -53 -34 -99 l-36
-34 -58 42 c-367 267 -654 405 -1047 506 -121 31 -151 37 -245 51 -59 9 -139
34 -146 46 -10 16 -14 142 -6 154 4 6 38 20 77 33 166 54 225 163 219 408 -3
146 -17 199 -70 268 -61 80 -160 112 -341 110 -123 -2 -150 -12 -178 -65 l-16
-30 -98 0 -99 0 -12 30 c-21 52 -66 72 -135 59z"/>
</g>
</svg>
