<svg version="1.1" id="Livello_1" xmlns="http://www.w3.org/2000/svg" x="0" y="0" viewBox="0 0 425.2 425.2" style="enable-background:new 0 0 425.2 425.2" xml:space="preserve"><style>.st0{fill:#040303}.st1{fill:#fc9216}.st2{fill:#e3e8f3}.st4{fill:#cbd0dd}</style><switch><g><path class="st0" d="M356.22 331c3.27 4.23 3.34 5.86.26 10.24-27.89 39.61-65.64 64-113.22 73.07-4.94.94-9.99 1.29-14.99 1.93-.71.09-1.65-.33-1.95.79h-29.54c-5.17-2.11-10.77-1.92-16.14-2.96-42.58-8.24-77.58-29.25-104.39-63.16-51.29-64.87-50.69-154.64 1.43-218.79 26.7-32.87 61.35-53.08 102.9-61.37 3.77-.75 7.6-1.35 11.44-1.64 2.24-.17 2.65-1.17 2.45-3.01-.04-.39 0-.8-.01-1.2-.01-2.39.65-5.07-.21-7.11-.87-2.07-3.97-1.19-5.99-2.03-7.35-3.08-11.41-8.59-11.93-16.44-.35-5.29-.57-10.64.31-15.93 1.29-7.73 7.31-13.66 15.1-14.96 4.87-.81 7.25.66 8.82 5.47-.24 3.9-2.29 5.98-6.19 6.5-3.85.51-5.87 2.84-5.89 6.77-.02 3.59-.12 7.19.03 10.77.18 4.45 2.24 6.69 6.68 6.77 7.17.14 14.35-.07 21.53-.13 4.49.06 8.99.29 13.48.15 4.59-.14 6.65-2.34 6.82-7 .12-3.44.12-6.89 0-10.32-.17-4.82-2.29-6.91-7.18-7.05-4.1-.12-8.2-.04-12.3-.04-2.91-1.2-4.34-3.47-4.72-6.5 1.26-4.15 4.03-5.92 8.36-5.64 2.91.19 5.85.01 8.78.04 10.84.13 18.23 6.61 19.19 17.3.43 4.74.41 9.59-.04 14.34-.87 9.17-6.47 15.12-15.46 16.76-1.88.34-2.61.71-2.65 2.83-.18 9.01-.27 9 8.97 10.49 29.41 4.74 55.92 16.15 79.5 34.39 1.42 1.1 2.91 3.34 4.73.49 1.33-2.08 5.57-2.69 2.24-6.99-5.47-7.07-3.9-17.49 2.67-23.52 6.62-6.08 16.93-6.76 23.65-.77 10.03 8.92 19.53 18.45 28.5 28.44 6.15 6.85 5.5 17.3-.73 23.97-6.21 6.64-16.5 7.84-23.9 2.22-3.99-3.03-4.42 1.29-6.38 2.35-2.33 1.26-1.51 2.72-.17 4.42 13.93 17.74 24.06 37.45 30.25 59.14 7.12 24.91 8.5 50.19 4.56 75.79-1.72 11.18-4.69 22.04-8.44 32.7-1.85 5.28-3.15 6.23-8.72 5.97-4.25-3.34-4.66-4.5-2.6-10.32 9.01-25.51 11.88-51.62 8.12-78.45-4.14-29.5-15.63-55.84-34.21-79.02-18.25-22.76-41.1-39.45-68.36-49.92-19.14-7.35-38.99-11.11-59.56-10.62-8.16-.49-16.22.67-24.2 1.95-19.04 3.05-37.03 9.33-53.8 18.92-28.22 16.15-49.95 38.66-64.74 67.56-14.33 27.99-19.92 57.85-17.01 89.22 3.09 33.28 15.54 62.82 36.87 88.34 25.19 30.15 57.38 48.89 96.09 56.09 10.72 1.99 21.56 3.18 32.51 2.24l1.09-.15.16.12.18-.1c1.06.04 2.12.17 3.17.12 24.81-1.26 48.09-7.95 69.81-19.98 22.24-12.31 40.52-29.01 55.02-49.88 3.3-4.8 4.81-5.26 9.95-3.66zm2.67-217.39c1.56 1.56 2.96 3.35 4.73 4.64 2.64 1.92 5.5 1.75 7.83-.62 2.34-2.37 2.47-5.19.48-7.85-1-1.33-2.38-2.38-3.6-3.55-7.38-7.47-14.7-15.01-22.16-22.4-2.92-2.89-6.31-2.89-8.87-.45-2.59 2.47-2.6 6.18.36 9.18 7 7.1 14.14 14.05 21.23 21.05zM212.97 56.99c-.53 0-1.07.08-1.59-.01-3.74-.67-5.45.68-4.7 4.6.1.51.09 1.07 0 1.58-.64 3.75.63 5 4.64 4.73 7.62-.51 7.53-.24 7.52-7.84 0-2.42-.62-3.45-3.1-3.08-.9.13-1.84.02-2.77.02zm132.6 61.06c-.73-.82-1.15-1.32-1.6-1.78-1.49-1.51-3.15-2.89-4.46-4.55-1.75-2.22-2.88-1.89-4.93-.08-2.7 2.39-2.68 3.95.14 5.98 1.28.91 2.18 2.34 3.42 3.32.77.61 1.15 2.53 2.65 1.42 1.67-1.24 3.12-2.79 4.78-4.31z"/><path class="st1" d="M211.09 80.21c20.57-.49 40.42 3.27 59.56 10.62 27.26 10.46 50.11 27.16 68.36 49.92 18.58 23.17 30.07 49.52 34.21 79.02 3.77 26.83.9 52.94-8.12 78.45-2.06 5.82-1.64 6.99 2.6 10.32-3.08 7.87-7.19 15.22-11.49 22.47-5.13-1.6-6.65-1.14-9.98 3.66-14.5 20.87-32.79 37.57-55.02 49.88-21.72 12.03-44.99 18.72-69.81 19.98-1.05.05-2.11-.07-3.16-.12.94-2.11 3.04-2.89 4.77-4.03 8.94-5.89 17.31-12.48 24.84-20.1 7.44-2.36 14.94-4.55 22.11-7.71 24.82-10.95 45.04-27.54 60.44-49.84 16.97-24.57 25.2-51.99 25-81.77-.15-22.39-5.42-43.7-15.84-63.59-14.12-26.96-34.81-47.35-61.79-61.41-11.26-5.87-23.31-9.48-35.5-12.75-7.3-7.4-15.95-13.01-24.6-18.64-2.19-1.45-4.75-2.36-6.58-4.36z"/><path class="st2" d="M212.79 13.83c.39 3.03 1.81 5.3 4.72 6.5.14 1.04.35 2.08.41 3.13.41 7.09 1.49 14.23-1.23 21.15-7.18.06-14.36.27-21.53.13-4.43-.08-6.49-2.32-6.68-6.77-.15-3.59-.05-7.18-.03-10.77.02-3.93 2.04-6.26 5.89-6.77 3.9-.52 5.95-2.59 6.19-6.5 4.09-.04 8.18-.07 12.26-.1z"/><path d="M247.85 380.27c-7.54 7.62-15.9 14.21-24.84 20.1-1.73 1.14-3.84 1.92-4.77 4.03l-.18.1-.16-.12-1.08.15c-10.95.94-21.79-.24-32.51-2.24-38.71-7.2-70.9-25.94-96.09-56.09-21.32-25.52-33.78-55.06-36.87-88.34-2.91-31.36 2.68-61.22 17.01-89.22 14.79-28.9 36.51-51.41 64.74-67.56 16.77-9.59 34.76-15.87 53.8-18.92 7.98-1.28 16.04-2.44 24.2-1.95 1.83 2 4.38 2.91 6.59 4.34 8.64 5.63 17.29 11.25 24.6 18.64-1.18-.13-2.38-.18-3.55-.4-14.89-2.68-29.91-3.22-44.82-.92-44.15 6.84-78.14 29.35-101.87 67.26-2.77 4.42-2.49 6.43 1.14 10.15-3.56 7.24-6.74 14.63-9.19 22.32-5.26.04-6.75 1.21-8.08 6.27-4.23 16.13-5.35 32.55-3.52 49.03 3.35 30.27 14.85 57.14 35.42 79.8 29.47 32.47 66.33 48.07 110.09 47.48 10.11-.13 20.06-1.86 29.94-3.91z" style="fill:#fcbf3e"/><path class="st2" d="M358.89 113.61c-7.09-7.01-14.23-13.96-21.23-21.05-2.96-3-2.95-6.71-.36-9.18 2.57-2.45 5.96-2.44 8.87.45 7.46 7.39 14.78 14.92 22.16 22.4-1.52.37-1.7 1.87-2.47 2.88-1.77 2.32-3.63 4.58-6.97 4.5z"/><path class="st4" d="M216.69 44.6c2.71-6.91 1.64-14.05 1.23-21.15-.06-1.05-.27-2.08-.41-3.13 4.1.01 8.21-.08 12.3.04 4.89.14 7.01 2.23 7.18 7.05.12 3.44.12 6.89 0 10.32-.17 4.66-2.23 6.86-6.82 7-4.48.16-8.98-.06-13.48-.13zM212.97 56.99c.93 0 1.87.11 2.78-.02 2.48-.36 3.09.66 3.1 3.08.01 7.6.1 7.33-7.52 7.84-4.01.27-5.28-.99-4.64-4.73.09-.51.1-1.07 0-1.58-.75-3.92.96-5.27 4.7-4.6.51.09 1.05.01 1.58.01zM358.89 113.61c3.34.08 5.2-2.18 6.98-4.51.77-1.01.94-2.52 2.47-2.88 1.21 1.17 2.6 2.22 3.6 3.55 1.99 2.67 1.86 5.48-.48 7.85-2.33 2.37-5.19 2.54-7.83.62-1.78-1.28-3.18-3.06-4.74-4.63zM345.57 118.05c-1.66 1.52-3.11 3.06-4.78 4.31-1.5 1.11-1.88-.81-2.65-1.42-1.24-.98-2.14-2.41-3.42-3.32-2.82-2.03-2.84-3.58-.14-5.98 2.05-1.82 3.18-2.14 4.93.08 1.31 1.66 2.97 3.03 4.46 4.55.45.46.87.96 1.6 1.78z"/><path class="st1" d="m216.81 404.52 1.08-.15c-.35.06-.71.11-1.08.15z"/><path class="st0" d="M93.18 179.3c-3.63-3.73-3.91-5.73-1.14-10.15 23.73-37.91 57.72-60.42 101.87-67.26 14.91-2.31 29.93-1.77 44.82.92 1.17.21 2.36.27 3.55.4 12.19 3.27 24.24 6.88 35.5 12.75 26.98 14.06 47.67 34.46 61.79 61.41 10.42 19.89 15.69 41.2 15.84 63.59.2 29.78-8.03 57.2-25 81.77-15.4 22.3-35.62 38.89-60.44 49.84-7.17 3.16-14.67 5.35-22.11 7.71-9.89 2.05-19.83 3.78-29.95 3.92-43.76.59-80.62-15.01-110.09-47.48-20.56-22.66-32.06-49.53-35.42-79.8-1.83-16.48-.71-32.91 3.52-49.03 1.33-5.06 2.82-6.22 8.08-6.27 3.85 2.08 4.77 5.14 3.72 9.35-1.7 6.83-2.71 13.79-3.46 20.81-.36 3.38.05 5.01 4.11 4.73 5.02-.34 7.95 2.59 7.47 6.55-.43 3.58-3.1 5.62-7.96 5.4-3.12-.14-3.98.66-3.71 3.87 2.31 26.68 11.68 50.5 28.45 71.39 1.33 1.65 2.51 4.06 4.23 4.58 2 .61 3.04-2.35 4.71-3.53 2.44-1.72 4.9-1.96 7.38-.32 2.41 1.6 2.95 4.01 2.28 6.68-.44 1.73-1.69 3.06-3.06 4.09-2.49 1.86-2.09 3.03.17 4.96 20.34 17.42 43.71 27.86 70.3 31.07 2.48.3 5.35 1.08 7.37.17 1.66-.75.3-3.91.78-5.98.76-3.28 2.57-5.25 6.01-5.23 3.45.02 5.37 2.01 5.89 5.32.22 1.43.22 2.91.22 4.37.01 1.38.24 2.14 2 2.01 16.44-1.13 32.28-4.55 47.07-12.07 10.08-4.05 18.92-10.11 27.33-16.86 1.66-1.33 4.07-2.45 4.68-4.18.81-2.31-2.58-3.1-3.51-5.03-.11-.23-.33-.41-.47-.64-1.62-2.61-1.36-5.18.7-7.31 2.17-2.24 4.85-2.71 7.56-.88 1.2.81 2.32 1.81 3.26 2.9 1.35 1.56 2.2 1.65 3.68-.06 18.59-21.63 29.15-46.58 31.72-75 .32-3.54-.49-4.54-4.08-4.33-4.81.28-7.74-2.4-7.63-6.16.11-3.67 2.83-6.12 7.52-5.76 4.1.31 4.43-1.42 4.13-4.75-2.45-26.96-12.17-50.92-29.36-71.83-1.43-1.74-2.76-3.86-4.64-4.76-.69-.33-2.78 2.41-4.32 3.64-2.69 2.15-6.11 2.04-8.32-.17-2.29-2.29-2.4-5.5-.2-8.29.74-.94 1.58-1.81 2.49-2.58 1.44-1.2 1.52-2.02-.06-3.35-10.71-9.07-22.36-16.57-35.44-21.76-11.81-5.04-24.11-8.12-36.9-9.2-2.12-.18-4.57-1.12-6.27-.37-2.13.95-.45 3.79-1.02 5.72-.15.51-.23 1.04-.37 1.55-.79 2.77-2.75 4.29-5.5 4.37-2.95.09-5.14-1.41-5.86-4.37-.4-1.65-.53-3.42-.45-5.13.09-2.04-.67-2.38-2.56-2.22-27.36 2.4-51.76 12.08-73.04 29.5-4.39 3.59-4.37 3.62-.72 8.1 2.41 2.97 2.4 6.19-.02 8.61-2.31 2.31-5.72 2.28-8.6-.11-.71-.59-1.45-1.21-1.99-1.95-1.61-2.2-2.6-1.46-4.12.33-4.93 5.78-9.32 11.93-13.33 18.36-2.2 3.46-5.02 4.98-9.08 3.43z"/><path class="st2" d="M93.18 179.3c4.05 1.55 6.88.03 9.06-3.46 4.01-6.43 8.4-12.58 13.33-18.36 1.52-1.78 2.51-2.52 4.12-.33.54.74 1.28 1.35 1.99 1.95 2.88 2.39 6.29 2.42 8.6.11 2.42-2.42 2.43-5.64.02-8.61-3.65-4.49-3.66-4.51.72-8.1 21.28-17.42 45.68-27.1 73.04-29.5 1.89-.17 2.65.18 2.56 2.22-.08 1.7.05 3.47.45 5.13.72 2.97 2.91 4.46 5.86 4.37 2.76-.08 4.72-1.59 5.5-4.37.14-.51.22-1.04.37-1.55.57-1.93-1.11-4.77 1.02-5.72 1.7-.75 4.15.19 6.27.37 12.8 1.08 25.09 4.16 36.9 9.2-.18 1.51.81 2.4 1.67 3.44 11.78 14.19 20.94 29.96 27.88 47.01 6.98 17.13 11.41 34.86 12.94 53.37 1.13 13.67 1.24 27.32-.35 40.88a176.51 176.51 0 0 1-10.65 43c-5.85 15.17-13.17 29.51-22.78 42.68-1.51 2.07-3.58 3.96-3.76 6.82-14.79 7.52-30.63 10.94-47.07 12.07-1.76.12-2-.63-2-2.01-.01-1.46 0-2.93-.22-4.37-.52-3.31-2.44-5.3-5.89-5.32-3.44-.02-5.25 1.95-6.01 5.23-.48 2.07.88 5.23-.78 5.98-2.02.92-4.9.13-7.37-.17-26.59-3.21-49.96-13.66-70.3-31.07-2.26-1.93-2.65-3.11-.17-4.96 1.37-1.02 2.62-2.35 3.06-4.09.67-2.66.13-5.08-2.28-6.68-2.48-1.64-4.93-1.41-7.38.32-1.66 1.17-2.71 4.13-4.71 3.53-1.72-.52-2.9-2.93-4.23-4.58-16.74-20.91-26.11-44.73-28.42-71.41-.28-3.21.59-4.01 3.71-3.87 4.86.22 7.53-1.82 7.96-5.4.48-3.96-2.44-6.89-7.47-6.55-4.07.27-4.47-1.36-4.11-4.73.74-7.01 1.76-13.98 3.46-20.81 1.05-4.21.13-7.27-3.72-9.35 2.44-7.69 5.62-15.08 9.18-22.31zm113.4 7.39c0 9.57-.09 19.14.06 28.71.04 2.57-.57 3.91-3.13 5.04-10.57 4.66-16.29 16.32-13.72 27.26 2.6 11.08 12.91 19.28 23.98 19.08 11.5-.21 21.91-8.96 23.68-19.9 1.95-12.07-4.32-23.1-15.74-27.18-2.37-.85-2.87-2-2.86-4.27.08-18.87.06-37.75.02-56.62 0-1.71-.07-3.5-.57-5.11-.84-2.69-2.97-4.1-5.75-4.02-2.6.07-4.59 1.47-5.38 4-.46 1.49-.56 3.14-.57 4.71-.04 9.43-.02 18.86-.02 28.3z"/><path class="st4" d="M267.96 359.83c.18-2.86 2.25-4.75 3.76-6.82 9.6-13.17 16.93-27.51 22.78-42.68a176.51 176.51 0 0 0 10.65-43c1.59-13.55 1.48-27.21.35-40.88-1.53-18.5-5.96-36.23-12.94-53.37-6.94-17.05-16.1-32.82-27.88-47.01-.86-1.04-1.85-1.93-1.67-3.44 13.08 5.19 24.73 12.69 35.44 21.76 1.58 1.34 1.5 2.15.06 3.35-.91.76-1.76 1.64-2.49 2.58-2.2 2.79-2.09 6 .2 8.29 2.21 2.21 5.62 2.32 8.32.17 1.54-1.23 3.63-3.97 4.32-3.64 1.88.91 3.21 3.03 4.64 4.76 17.19 20.91 26.92 44.87 29.36 71.83.3 3.34-.03 5.06-4.13 4.75-4.69-.35-7.41 2.1-7.52 5.76-.12 3.76 2.82 6.44 7.63 6.16 3.59-.21 4.39.79 4.08 4.33-2.56 28.41-13.13 53.37-31.72 75-1.47 1.71-2.33 1.62-3.68.06-.94-1.09-2.06-2.09-3.26-2.9-2.71-1.83-5.39-1.37-7.56.88-2.07 2.13-2.32 4.7-.7 7.31.14.22.36.4.47.64.92 1.93 4.32 2.72 3.51 5.03-.61 1.73-3.02 2.85-4.68 4.18-8.42 6.79-17.26 12.85-27.34 16.9z"/><path class="st0" d="M206.58 186.69c0-9.44-.02-18.88.02-28.31.01-1.58.1-3.22.57-4.71.79-2.53 2.78-3.93 5.38-4 2.78-.08 4.92 1.33 5.75 4.02.5 1.61.57 3.4.57 5.11.04 18.87.06 37.75-.02 56.62-.01 2.27.49 3.42 2.86 4.27 11.42 4.08 17.69 15.12 15.74 27.18-1.77 10.94-12.18 19.69-23.68 19.9-11.07.2-21.38-8-23.98-19.08-2.56-10.94 3.15-22.6 13.72-27.26 2.55-1.13 3.16-2.47 3.13-5.04-.15-9.56-.06-19.13-.06-28.7z"/></g></switch></svg>